<svg width="24" height="24" viewBox="0 0 24 24" fill="none" xmlns="http://www.w3.org/2000/svg">
<path d="M20 10.9696L12.4356 18.5497C11.5089 19.4783 10.252 20 8.94144 20C7.63089 20 6.37401 19.4783 5.44731 18.5497C4.52061 17.6211 4 16.3616 4 15.0483C4 13.7351 4.52061 12.4756 5.44731 11.547L13.0117 3.96687C13.6295 3.34779 14.4675 3 15.3412 3C16.2149 3 17.0528 3.34779 17.6706 3.96687C18.2884 4.58595 18.6355 5.4256 18.6355 6.30111C18.6355 7.17662 18.2884 8.01628 17.6706 8.63535L10.0979 16.2154C9.78902 16.525 9.37006 16.6989 8.93321 16.6989C8.49636 16.6989 8.0774 16.525 7.7685 16.2154C7.4596 15.9059 7.28606 15.4861 7.28606 15.0483C7.28606 14.6106 7.4596 14.1907 7.7685 13.8812L14.7568 6.88674" stroke="#9E9E9E" stroke-width="1.5" stroke-linecap="round" stroke-linejoin="round"/>
</svg>
