<svg width="24" height="24" viewBox="0 0 24 24" fill="none" xmlns="http://www.w3.org/2000/svg">
<path d="M19.2 20L18.9621 20.7113C19.2218 20.7981 19.5083 20.7365 19.7093 20.5505C19.9104 20.3645 19.994 20.0838 19.9276 19.8181L19.2 20ZM18.4 16.8008L17.8004 16.3503L17.5857 16.636L17.6724 16.9827L18.4 16.8008ZM16 18.9297L16.2379 18.2185L15.9172 18.1112L15.6245 18.2805L16 18.9297ZM12 19.25C7.99594 19.25 4.75 16.0041 4.75 12H3.25C3.25 16.8325 7.16751 20.75 12 20.75V19.25ZM4.75 12C4.75 7.99594 7.99594 4.75 12 4.75V3.25C7.16751 3.25 3.25 7.16751 3.25 12H4.75ZM12 4.75C16.0041 4.75 19.25 7.99594 19.25 12H20.75C20.75 7.16751 16.8325 3.25 12 3.25V4.75ZM19.25 12C19.25 13.6333 18.7108 15.1385 17.8004 16.3503L18.9996 17.2513C20.0985 15.7887 20.75 13.9693 20.75 12H19.25ZM17.6724 16.9827L18.4724 20.1819L19.9276 19.8181L19.1276 16.6188L17.6724 16.9827ZM19.4379 19.2887L16.2379 18.2185L15.7621 19.641L18.9621 20.7113L19.4379 19.2887ZM15.6245 18.2805C14.5588 18.897 13.3218 19.25 12 19.25V20.75C13.5925 20.75 15.0878 20.3239 16.3755 19.5789L15.6245 18.2805Z" fill="#212121"/>
</svg>
