<svg width="20" height="19" viewBox="0 0 20 19" fill="none" xmlns="http://www.w3.org/2000/svg">
<path d="M7.1664 1.84744L2.42629 5.35425C1.15183 6.29711 0.400024 7.7885 0.400024 9.37381V15.8C0.400024 17.4568 1.74317 18.8 3.40002 18.8H5.75322C6.85779 18.8 7.75322 17.9045 7.75322 16.8V13.1444C7.75322 11.7907 8.85059 10.6933 10.2043 10.6933C11.558 10.6933 12.6553 11.7907 12.6553 13.1444V16.8C12.6553 17.9045 13.5508 18.8 14.6553 18.8H16.6C18.2569 18.8 19.6 17.4568 19.6 15.8V9.30996C19.6 7.76065 18.8818 6.29886 17.6554 5.35211L13.1955 1.90916C11.4257 0.542861 8.96385 0.51766 7.1664 1.84744Z" fill="#9E9E9E"/>
</svg>
