<svg width="24" height="24" viewBox="0 0 24 24" fill="none" xmlns="http://www.w3.org/2000/svg">
<path d="M12.5 14.6666C13.8807 14.6666 15 13.5473 15 12.1666C15 10.7859 13.8807 9.66663 12.5 9.66663C11.1193 9.66663 10 10.7859 10 12.1666C10 13.5473 11.1193 14.6666 12.5 14.6666Z" stroke="#212121" stroke-width="2" stroke-linecap="round" stroke-linejoin="round"/>
<path d="M18.3333 14.6667C18.2224 14.918 18.1893 15.1968 18.2383 15.4672C18.2873 15.7375 18.4162 15.9869 18.6083 16.1833L18.6583 16.2333C18.8133 16.3881 18.9362 16.5719 19.0201 16.7743C19.104 16.9766 19.1471 17.1935 19.1471 17.4125C19.1471 17.6315 19.104 17.8484 19.0201 18.0507C18.9362 18.2531 18.8133 18.4369 18.6583 18.5917C18.5035 18.7466 18.3197 18.8696 18.1174 18.9534C17.9151 19.0373 17.6982 19.0805 17.4792 19.0805C17.2601 19.0805 17.0433 19.0373 16.8409 18.9534C16.6386 18.8696 16.4548 18.7466 16.3 18.5917L16.25 18.5417C16.0536 18.3496 15.8042 18.2207 15.5338 18.1717C15.2635 18.1226 14.9847 18.1557 14.7333 18.2667C14.4869 18.3723 14.2767 18.5477 14.1286 18.7713C13.9805 18.9949 13.9011 19.2568 13.9 19.525V19.6667C13.9 20.1087 13.7244 20.5326 13.4118 20.8452C13.0993 21.1577 12.6754 21.3333 12.2333 21.3333C11.7913 21.3333 11.3674 21.1577 11.0548 20.8452C10.7423 20.5326 10.5667 20.1087 10.5667 19.6667V19.5917C10.5602 19.3158 10.4709 19.0483 10.3104 18.8239C10.1499 18.5995 9.92561 18.4286 9.66667 18.3333C9.41532 18.2224 9.13651 18.1893 8.86618 18.2383C8.59585 18.2873 8.3464 18.4162 8.15 18.6083L8.1 18.6583C7.94521 18.8133 7.7614 18.9362 7.55907 19.0201C7.35674 19.104 7.13986 19.1471 6.92083 19.1471C6.70181 19.1471 6.48493 19.104 6.2826 19.0201C6.08027 18.9362 5.89646 18.8133 5.74167 18.6583C5.58671 18.5035 5.46377 18.3197 5.3799 18.1174C5.29603 17.9151 5.25286 17.6982 5.25286 17.4792C5.25286 17.2601 5.29603 17.0433 5.3799 16.8409C5.46377 16.6386 5.58671 16.4548 5.74167 16.3L5.79167 16.25C5.98378 16.0536 6.11265 15.8042 6.16167 15.5338C6.21069 15.2635 6.1776 14.9847 6.06667 14.7333C5.96103 14.4869 5.78563 14.2767 5.56205 14.1286C5.33848 13.9805 5.07649 13.9011 4.80833 13.9H4.66667C4.22464 13.9 3.80072 13.7244 3.48816 13.4118C3.17559 13.0993 3 12.6754 3 12.2333C3 11.7913 3.17559 11.3674 3.48816 11.0548C3.80072 10.7423 4.22464 10.5667 4.66667 10.5667H4.74167C5.0175 10.5602 5.285 10.4709 5.50942 10.3104C5.73383 10.1499 5.90476 9.92561 6 9.66667C6.11093 9.41532 6.14402 9.13651 6.095 8.86618C6.04599 8.59585 5.91711 8.3464 5.725 8.15L5.675 8.1C5.52004 7.94521 5.39711 7.7614 5.31323 7.55907C5.22936 7.35674 5.18619 7.13986 5.18619 6.92083C5.18619 6.70181 5.22936 6.48493 5.31323 6.2826C5.39711 6.08027 5.52004 5.89646 5.675 5.74167C5.82979 5.58671 6.0136 5.46377 6.21593 5.3799C6.41826 5.29603 6.63514 5.25286 6.85417 5.25286C7.07319 5.25286 7.29007 5.29603 7.4924 5.3799C7.69473 5.46377 7.87855 5.58671 8.03333 5.74167L8.08333 5.79167C8.27973 5.98378 8.52918 6.11265 8.79951 6.16167C9.06984 6.21069 9.34865 6.1776 9.6 6.06667H9.66667C9.91314 5.96103 10.1233 5.78563 10.2714 5.56205C10.4195 5.33848 10.4989 5.07649 10.5 4.80833V4.66667C10.5 4.22464 10.6756 3.80072 10.9882 3.48816C11.3007 3.17559 11.7246 3 12.1667 3C12.6087 3 13.0326 3.17559 13.3452 3.48816C13.6577 3.80072 13.8333 4.22464 13.8333 4.66667V4.74167C13.8344 5.00982 13.9139 5.27181 14.0619 5.49539C14.21 5.71896 14.4202 5.89436 14.6667 6C14.918 6.11093 15.1968 6.14402 15.4672 6.095C15.7375 6.04599 15.9869 5.91711 16.1833 5.725L16.2333 5.675C16.3881 5.52004 16.5719 5.39711 16.7743 5.31323C16.9766 5.22936 17.1935 5.18619 17.4125 5.18619C17.6315 5.18619 17.8484 5.22936 18.0507 5.31323C18.2531 5.39711 18.4369 5.52004 18.5917 5.675C18.7466 5.82979 18.8696 6.0136 18.9534 6.21593C19.0373 6.41826 19.0805 6.63514 19.0805 6.85417C19.0805 7.07319 19.0373 7.29007 18.9534 7.4924C18.8696 7.69473 18.7466 7.87855 18.5917 8.03333L18.5417 8.08333C18.3496 8.27973 18.2207 8.52918 18.1717 8.79951C18.1226 9.06984 18.1557 9.34865 18.2667 9.6V9.66667C18.3723 9.91314 18.5477 10.1233 18.7713 10.2714C18.9949 10.4195 19.2568 10.4989 19.525 10.5H19.6667C20.1087 10.5 20.5326 10.6756 20.8452 10.9882C21.1577 11.3007 21.3333 11.7246 21.3333 12.1667C21.3333 12.6087 21.1577 13.0326 20.8452 13.3452C20.5326 13.6577 20.1087 13.8333 19.6667 13.8333H19.5917C19.3235 13.8344 19.0615 13.9139 18.8379 14.0619C18.6144 14.21 18.439 14.4202 18.3333 14.6667Z" stroke="#212121" stroke-width="2" stroke-linecap="round" stroke-linejoin="round"/>
</svg>
