<svg width="26" height="26" viewBox="0 0 26 26" fill="none" xmlns="http://www.w3.org/2000/svg">
<g id="icons /verified">
<path id="Vector" d="M8.51669 23.6342C8.90047 24.2806 9.70343 24.543 10.3949 24.2481L13 23.1371L15.6051 24.2481C16.2966 24.543 17.0995 24.2806 17.4833 23.6342L18.9391 21.1824L21.686 20.5719C22.4245 20.4078 22.9252 19.7195 22.854 18.9664L22.5861 16.1345L24.4645 13.9878C24.9593 13.4222 24.9593 12.5778 24.4645 12.0122L22.5861 9.86552L22.854 7.0336C22.9252 6.28048 22.4245 5.59217 21.6861 5.42806L18.9391 4.81762L17.4833 2.36582C17.0995 1.71944 16.2966 1.45697 15.6051 1.75186L13 2.86286L10.3949 1.75186C9.70343 1.45697 8.90047 1.71944 8.51669 2.36581L7.06092 4.81762L4.31395 5.42806C3.57548 5.59217 3.07477 6.28048 3.14601 7.0336L3.4139 9.86553L1.53552 12.0122C1.04067 12.5778 1.04067 13.4222 1.53552 13.9878L3.4139 16.1345L3.14601 18.9664C3.07477 19.7195 3.57548 20.4078 4.31395 20.5719L7.06092 21.1824L8.51669 23.6342ZM22.4443 16.2965L22.4448 16.296L22.4443 16.2965ZM16.1981 10.8877L11.95 15.1358L10.3194 13.5052L10.8978 14.0701L11.5965 13.3547L10.8978 14.0701C11.4855 14.6441 12.4256 14.6386 13.0065 14.0577L16.1875 10.8767L16.1981 10.8877ZM9.80414 12.303L9.4647 12.6505L9.80414 12.303ZM10.1571 12.6571L10.1577 12.6565C10.1575 12.6567 10.1573 12.6569 10.1571 12.6571Z" fill="#3897F0" stroke="white" stroke-width="2" stroke-linejoin="round"/>
</g>
</svg>
